<?xml version="1.0" encoding="UTF-8"?>
<!-- Generator: Adobe Illustrator 16.0.0, SVG Export Plug-In . SVG Version: 6.00 Build 0)  -->
<!DOCTYPE svg PUBLIC "-//W3C//DTD SVG 1.1//EN" "http://www.w3.org/Graphics/SVG/1.1/DTD/svg11.dtd">
<svg version="1.1" id="Layer_1" xmlns:sketch="http://www.bohemiancoding.com/sketch/ns" xmlns="http://www.w3.org/2000/svg" xmlns:xlink="http://www.w3.org/1999/xlink" x="0px" y="0px" width="400.001px" height="150px" viewBox="1723.625 123.589 400.001 150" enable-background="new 1723.625 123.589 400.001 150" xml:space="preserve">
<g id="box-big_2_" transform="translate(146.000000, 0.000000)" sketch:type="MSShapeGroup">
	<rect id="Rectangle-178_10_" x="1732.303" y="178.771" fill="#CB9E75" width="45.053" height="62.441"/>
	<rect id="Rectangle-179_10_" x="1777.356" y="178.771" fill="#BA8D65" width="45.053" height="62.441"/>
	<path id="Rectangle-180_2_" fill="#B78C67" d="M1711.752,166.124l20.375,12.646h45.229l-17.16-12.646H1711.752z"/>
	<path id="Rectangle-181_2_" fill="#C09269" d="M1842.168,166.124l-20.375,12.646h-45.228l17.161-12.646H1842.168z"/>
	<path id="Rectangle-183_19_" fill="#F2DFC7" fill-opacity="0.2095" d="M1750.483,178.771v16.599l4.269-3.456l3.636,3.456v-16.599   H1750.483z"/>
	<rect id="Rectangle-186_19_" x="1750.483" y="232.519" fill="#F2DFC7" fill-opacity="0.2095" width="7.904" height="8.693"/>
	<path id="Rectangle-182_3_" fill="#AF733E" fill-opacity="0.6302" d="M1732.303,189.836v-11.065h45.053l-13.054,11.065H1732.303z"/>
	<path id="Rectangle-184_3_" fill="#DEC59E" fill-opacity="0.4147" d="M1794.774,165.334l-3.422,2.559l48.166-0.152l3.982-2.406   H1794.774z"/>
	<path id="Path_3_" fill="#492E19" fill-opacity="0.2298" d="M1807.494,199.379h-3.419v2.023c-0.951-0.791-2.058-1.387-3.266-1.736   c-0.782-0.226-1.604-0.346-2.458-0.346c-5.049,0-9.143,4.229-9.143,9.444c0,5.217,4.094,9.445,9.143,9.445   c2.169,0,4.158-0.78,5.724-2.083v2.162h3.406c1.265,0.001,2.28-1.049,2.28-2.342c0-1.294-1.016-2.344-2.268-2.344V199.379z    M1798.697,215.129c-3.493,0-6.323-2.831-6.323-6.323c0-3.493,2.83-6.323,6.323-6.323c3.492,0,6.322,2.83,6.322,6.323   C1805.019,212.298,1802.188,215.129,1798.697,215.129z"/>
</g>
</svg>