<?xml version="1.0" encoding="UTF-8"?>
<!-- Generator: Adobe Illustrator 16.0.0, SVG Export Plug-In . SVG Version: 6.00 Build 0)  -->
<!DOCTYPE svg PUBLIC "-//W3C//DTD SVG 1.1//EN" "http://www.w3.org/Graphics/SVG/1.1/DTD/svg11.dtd">
<svg version="1.1" id="Layer_1" xmlns:sketch="http://www.bohemiancoding.com/sketch/ns" xmlns="http://www.w3.org/2000/svg" xmlns:xlink="http://www.w3.org/1999/xlink" x="0px" y="0px" width="400.001px" height="150px" viewBox="1723.625 123.589 400.001 150" enable-background="new 1723.625 123.589 400.001 150" xml:space="preserve">
<g>
	<path id="Imported-Layers-24_6_" fill="#FFFFFF" d="M2042.656,159.829c2.252,0,4.186,0.792,5.803,2.376   c1.435,1.466,2.226,3.209,2.377,5.227c0.099-0.017,0.216-0.025,0.35-0.025c1.268,0,2.334,0.443,3.2,1.324   c0.901,0.902,1.352,1.969,1.352,3.203c0,1.25-0.45,2.316-1.352,3.201c-0.817,0.834-1.824,1.284-3.025,1.35h-20.057   c-1.318-0.033-2.451-0.525-3.401-1.475c-0.968-0.951-1.451-2.117-1.451-3.502c0-1.351,0.483-2.509,1.451-3.476   c0.95-0.968,2.117-1.451,3.5-1.451c0.352,0,0.71,0.024,1.076,0.075c0.116-0.5,0.366-0.95,0.75-1.35   c0.55-0.535,1.226-0.801,2.026-0.801h0.074c0.367-0.835,0.901-1.601,1.601-2.301   C2038.514,160.621,2040.424,159.829,2042.656,159.829"/>
	<path id="Imported-Layers-30_7_" fill="#FFFFFF" d="M1810.881,202.829c2.689,0,5.001,0.903,6.934,2.711   c1.715,1.672,2.66,3.66,2.841,5.963c0.118-0.02,0.258-0.03,0.418-0.03c1.515,0,2.789,0.506,3.824,1.512   c1.077,1.029,1.616,2.245,1.616,3.653c0,1.427-0.539,2.643-1.616,3.651c-0.977,0.951-2.18,1.466-3.615,1.54h-23.97   c-1.575-0.037-2.929-0.6-4.064-1.682c-1.156-1.085-1.734-2.416-1.734-3.995c0-1.541,0.578-2.862,1.734-3.966   c1.136-1.104,2.53-1.654,4.184-1.654c0.419,0,0.848,0.028,1.285,0.085c0.139-0.57,0.438-1.083,0.896-1.54   c0.657-0.61,1.464-0.912,2.421-0.912h0.089c0.439-0.953,1.078-1.826,1.913-2.625   C1805.93,203.732,1808.212,202.829,1810.881,202.829"/>
	<path id="Shape_2_" fill="#FFFFFF" d="M1883.161,171.43c-0.427,0-0.846,0.037-1.253,0.104c-1.018-3.299-4.167-5.704-7.898-5.704   c-4.554,0-8.244,3.582-8.244,8.001c0,0.394,0.03,0.781,0.088,1.16c-0.219-0.024-0.44-0.041-0.665-0.041   c-3.097,0-5.606,2.436-5.606,5.439c0,3.005,2.51,5.44,5.606,5.44h7.723v-5.847h-3.255l5.426-7.076l5.425,7.076h-3.255v5.847h5.909   c4.099,0,7.421-3.224,7.421-7.2S1887.26,171.43,1883.161,171.43L1883.161,171.43z"/>
	<path id="Shape-2_2_" fill="#FFFFFF" d="M1998.28,206.429c-0.427,0-0.846,0.037-1.253,0.105c-1.018-3.3-4.167-5.705-7.898-5.705   c-4.554,0-8.244,3.582-8.244,8c0,0.395,0.03,0.782,0.088,1.162c-0.219-0.025-0.44-0.042-0.665-0.042   c-3.097,0-5.606,2.436-5.606,5.439c0,3.005,2.51,5.44,5.606,5.44h7.723v-5.846h-3.255l5.426-7.077l5.425,7.077h-3.255v5.846h5.909   c4.099,0,7.421-3.224,7.421-7.2C2005.7,209.653,2002.378,206.429,1998.28,206.429L1998.28,206.429z"/>
	<g id="Fill-1-_x2B_-Fill-2-_x2B_-Fill-3_2_" transform="translate(97.000000, 11.000000)">
		<path id="Fill-1_2_" fill="#77779A" d="M1810.896,205.59c-4.566-9.021-7.974-18.666-10.223-28.932    c-1.359-6.117-1.49-12.051-0.398-17.797c4.368-15.645,12.142-23.732,23.325-24.271h0.944c-6.154,0.232-10.424,8.324-12.804,24.271    c-0.564,5.746-0.498,11.68,0.195,17.797c1.227,10.266,3.063,19.91,5.511,28.932H1810.896L1810.896,205.59z M1832.353,205.59    h-7.809l0.101-65.983v-5.017h0.506c6.257,0.367,10.582,8.459,12.98,24.271c0.609,5.746,0.544,11.68-0.199,17.797    C1836.712,186.924,1834.853,196.568,1832.353,205.59L1832.353,205.59z M1859.536,158.861c1.518,5.746,1.32,11.68-0.593,17.797    c-3.202,10.266-8.051,19.91-14.549,28.932h-5.986c4.553-9.021,7.949-18.666,10.19-28.932c1.356-6.117,1.489-12.051,0.4-17.797    c-4.354-15.68-12.173-23.771-23.455-24.271C1841.904,134.957,1853.239,143.049,1859.536,158.861z"/>
		<path id="Fill-2_2_" fill="#29294C" d="M1824.544,134.59h0.725c11.792,0.508,19.963,8.713,24.515,24.613    c1.138,5.826,0.998,11.845-0.419,18.048c-2.342,10.41-5.893,20.19-10.65,29.339h-6.824c2.549-9.148,4.445-18.929,5.689-29.339    c0.759-6.203,0.825-12.222,0.203-18.048C1835.337,143.168,1830.925,134.963,1824.544,134.59L1824.544,134.59z M1801.156,159.203    c-1.096,5.826-0.964,11.845,0.399,18.048c2.255,10.41,5.671,20.19,10.25,29.339h-6.021c-6.503-9.148-11.383-18.929-14.633-29.339    c-1.924-6.203-2.12-12.222-0.596-18.048c6.334-16.035,17.664-24.24,33.988-24.613    C1813.33,135.136,1805.536,143.338,1801.156,159.203z M1826.426,206.59h-8.633c-2.915-9.333-5.104-19.311-6.565-29.932    c-0.825-6.328-0.905-12.469-0.232-18.413c2.835-16.498,7.512-23.415,14.844-23.655h0.705v3.735L1826.426,206.59z"/>
		<path id="Fill-3_2_" fill="#29294C" d="M1832.675,204.59h12.869c-4.239,5.722-9.171,11.178-14.801,16.37l-0.054,0.05h-0.456v14.58    h-0.612v-14.63h-2.949v3.321h0.71v1.638h-1.424v3.618h-2.489v-3.618h-1.274v-1.638h0.713v-3.321h-2.952v14.63h-0.611v-14.63    c-5.627-5.192-10.562-10.648-14.8-16.37H1832.675L1832.675,204.59z M1824.544,224.59h1.703v-4h-1.703V224.59z"/>
		<path id="Rectangle-394_2_" fill="#33336D" d="M1818.218,232.59l1.522,8h10.194l1.203-8H1818.218z"/>
		<rect id="Rectangle-396_2_" x="1817.544" y="232.59" fill="#77779A" width="14" height="2"/>
	</g>
</g>
</svg>