<?xml version="1.0" encoding="UTF-8"?>
<!-- Generator: Adobe Illustrator 16.0.0, SVG Export Plug-In . SVG Version: 6.00 Build 0)  -->
<!DOCTYPE svg PUBLIC "-//W3C//DTD SVG 1.1//EN" "http://www.w3.org/Graphics/SVG/1.1/DTD/svg11.dtd">
<svg version="1.1" id="Layer_1" xmlns:sketch="http://www.bohemiancoding.com/sketch/ns" xmlns="http://www.w3.org/2000/svg" xmlns:xlink="http://www.w3.org/1999/xlink" x="0px" y="0px" width="400.001px" height="150px" viewBox="1723.625 123.589 400.001 150" enable-background="new 1723.625 123.589 400.001 150" xml:space="preserve">
<g>
	<g id="Rectangle-353_1_">
		<rect x="1890.944" y="154.766" sketch:type="MSShapeGroup" fill="#F5F5F5" width="74.907" height="73.493">
		</rect>
	</g>
	<g id="Group_1_" transform="translate(9.000000, 19.000000)" sketch:type="MSShapeGroup">
		<g id="Line_9_">
			
				<rect x="1895.966" y="193.309" transform="matrix(0.1955 0.9807 -0.9807 0.1955 1719.2478 -1708.5713)" fill="#BBBBBB" width="10.11" height="0.62"/>
		</g>
		<g id="Line-7_1_">
			
				<rect x="1898.437" y="190.836" transform="matrix(0.1952 0.9808 -0.9808 0.1952 1719.4237 -1713.0442)" fill="#BBBBBB" width="10.111" height="0.618"/>
		</g>
		<g id="Line_8_">
			
				<rect x="1891.126" y="155.921" transform="matrix(0.4478 0.8941 -0.8941 0.4478 1189.0178 -1601.8318)" fill="#BBBBBB" width="0.621" height="11.71"/>
		</g>
		<g id="Line-5_1_">
			
				<rect x="1892.362" y="159.013" transform="matrix(0.4453 0.8954 -0.8954 0.4453 1197.4487 -1603.1979)" fill="#BBBBBB" width="0.618" height="11.708"/>
		</g>
		<g id="Line_7_">
			
				<rect x="1893.545" y="188.673" transform="matrix(0.8692 0.4945 -0.4945 0.8692 341.8832 -914.2881)" fill="#BBBBBB" width="10.624" height="0.619"/>
		</g>
		<g id="Line-8_1_">
			<polygon fill="#BBBBBB" points="1903.942,188.784 1894.703,183.53 1895.011,182.996 1904.243,188.247    "/>
		</g>
		<g id="Line-9_1_">
			
				<rect x="1912.713" y="147.245" transform="matrix(0.8692 0.4944 -0.4944 0.8692 323.7806 -929.0043)" fill="#BBBBBB" width="10.623" height="0.617"/>
		</g>
		<g id="Line-10_1_">
			
				<rect x="1907.791" y="149.408" transform="matrix(0.9025 0.4308 -0.4308 0.9025 251.2677 -810.2025)" fill="#BBBBBB" width="13.669" height="0.62"/>
		</g>
		<g id="Line_6_">
			
				<rect x="1933.174" y="186.697" transform="matrix(0.9856 0.1693 -0.1693 0.9856 60.7797 -324.4799)" fill="#BBBBBB" width="0.617" height="15.08"/>
		</g>
		<g id="Line-11_1_">
			
				<rect x="1937.501" y="184.844" transform="matrix(0.9851 0.1721 -0.1721 0.9851 62.0084 -330.5772)" fill="#BBBBBB" width="0.619" height="15.078"/>
		</g>
		<g id="Line_5_">
			
				<rect x="1943.686" y="150.193" transform="matrix(0.9783 0.207 -0.207 0.9783 74.5308 -399.1045)" fill="#BBBBBB" width="0.618" height="12.653"/>
		</g>
		<g id="Line-12_1_">
			
				<rect x="1940.594" y="150.193" transform="matrix(0.9784 0.2067 -0.2067 0.9784 74.2823 -397.8546)" fill="#BBBBBB" width="0.619" height="12.654"/>
		</g>
	</g>
	<g id="Polygon-7_1_">
		<path fill="#B9B9B9" d="M1928.253,218.53l-19.455-9.69l-0.032-0.143l-6.521-29.554l26.009-12.627l24.776,12.627l-5.305,29.691    L1928.253,218.53z M1909.339,208.418l18.914,9.42l18.917-9.418l5.17-28.931l-24.091-12.28l-25.296,12.28L1909.339,208.418z     M1928.103,213.663l-16.022-7.992l-0.033-0.145l-5.362-24.344l21.421-10.416l20.401,10.417l-4.367,24.483l-0.14,0.067    L1928.103,213.663z M1912.616,205.248l15.486,7.726l15.484-7.721l4.229-23.729l-19.717-10.066l-20.708,10.066L1912.616,205.248z"/>
	</g>
	<g id="Rectangle-354_1_">
		<rect x="1900.838" y="146.285" sketch:type="MSShapeGroup" fill="#7C2A0A" width="5.654" height="8.48">
		</rect>
	</g>
	<g id="Rectangle-355_1_">
		<rect x="1948.892" y="146.285" sketch:type="MSShapeGroup" fill="#7C2A0A" width="5.652" height="8.48">
		</rect>
	</g>
	<g id="Rectangle-361_1_">
		<rect x="1902.25" y="231.791" sketch:type="MSShapeGroup" fill="#5C3818" width="5.654" height="13.427">
		</rect>
	</g>
	<g id="Rectangle-360_1_">
		<rect x="1948.892" y="231.791" sketch:type="MSShapeGroup" fill="#5C3818" width="5.652" height="13.427">
		</rect>
	</g>
	<g id="Rectangle-362_1_">
		<rect x="1895.889" y="238.859" sketch:type="MSShapeGroup" fill="#7C2A0A" width="65.016" height="6.358">
		</rect>
	</g>
	<g id="Rectangle-363_1_">
		<rect x="1903.664" y="245.218" sketch:type="MSShapeGroup" fill="#2C2B2B" width="2.828" height="2.827">
		</rect>
	</g>
	<g id="Rectangle-364_1_">
		<rect x="1950.305" y="245.218" sketch:type="MSShapeGroup" fill="#2C2B2B" width="2.825" height="2.827">
		</rect>
	</g>
	<g id="Rectangle-358_1_">
		<rect x="1884.584" y="224.018" sketch:type="MSShapeGroup" fill="#914129" width="86.922" height="7.773">
		</rect>
	</g>
	<g id="Rectangle-356_1_">
		<rect x="1911.438" y="154.766" sketch:type="MSShapeGroup" fill="#7C2A0A" width="31.802" height="3.531">
		</rect>
	</g>
	<g id="Rectangle-357_1_">
		<rect x="1909.316" y="151.938" sketch:type="MSShapeGroup" fill="#914129" width="36.043" height="3.532">
		</rect>
	</g>
	<polygon fill="#D33333" points="1909.375,208.391 1928.815,217.832 1947.393,208.574 1952.631,178.901 1928.348,166.874    1903.029,179.191  "/>
	<path fill="#AFAFAF" d="M1927.947,168.192l23.005,11.396l-4.959,28.112l-17.604,8.772l-18.421-8.946l-6.014-27.665   L1927.947,168.192 M1927.956,165.378l-1.115,0.543l-23.992,11.67l-1.785,0.868l0.422,1.94l6.015,27.663l0.261,1.199l1.104,0.536   l18.421,8.946l1.118,0.545l1.111-0.556l17.604-8.771l1.139-0.567l0.223-1.255l4.958-28.113l0.328-1.861l-1.693-0.841   l-23.005-11.396L1927.956,165.378L1927.956,165.378z"/>
	<path fill="#F5F5F5" d="M1927.91,172.296l-15.278,33.212h5.54l3.328-7.346h12.396l3.136,7.346h5.613L1927.91,172.296z    M1923.485,193.76l4.262-9.435l4.066,9.435H1923.485z"/>
</g>
</svg>